<?xml version="1.0" encoding="utf-8"?>
<!-- Generator: Adobe Illustrator 18.0.0, SVG Export Plug-In . SVG Version: 6.00 Build 0)  -->
<!DOCTYPE svg PUBLIC "-//W3C//DTD SVG 1.1//EN" "http://www.w3.org/Graphics/SVG/1.1/DTD/svg11.dtd">
<svg version="1.1" id="Layer_1" xmlns="http://www.w3.org/2000/svg" xmlns:xlink="http://www.w3.org/1999/xlink" x="0px" y="0px"
	 viewBox="0 0 24 24" enable-background="new 0 0 24 24" xml:space="preserve">
		<path fill="#eee" d="M10.59 13.41c.41.39.41 1.03 0 1.42-.39.39-1.03.39-1.42 0a5.003 5.003 0 0 1 0-7.07l3.54-3.54a5.003 5.003 0 0 1 7.07 0 5.003 5.003 0 0 1 0 7.07l-1.49 1.49c.01-.82-.12-1.64-.4-2.42l.47-.48a2.982 2.982 0 0 0 0-4.24 2.982 2.982 0 0 0-4.24 0l-3.53 3.53a2.982 2.982 0 0 0 0 4.24zm2.82-4.24c.39-.39 1.03-.39 1.42 0a5.003 5.003 0 0 1 0 7.07l-3.54 3.54a5.003 5.003 0 0 1-7.07 0 5.003 5.003 0 0 1 0-7.07l1.49-1.49c-.01.82.12 1.64.4 2.43l-.47.47a2.982 2.982 0 0 0 0 4.24 2.982 2.982 0 0 0 4.24 0l3.53-3.53a2.982 2.982 0 0 0 0-4.24.973.973 0 0 1 0-1.42z"/>
</svg>
