<?xml version="1.0" encoding="utf-8"?>
<!-- Generator: Adobe Illustrator 18.0.0, SVG Export Plug-In . SVG Version: 6.00 Build 0)  -->
<!DOCTYPE svg PUBLIC "-//W3C//DTD SVG 1.1//EN" "http://www.w3.org/Graphics/SVG/1.1/DTD/svg11.dtd">
<svg version="1.1" id="Layer_1" xmlns="http://www.w3.org/2000/svg" xmlns:xlink="http://www.w3.org/1999/xlink" x="0px" y="0px"
	 viewBox="0 0 64 64" enable-background="new 0 0 64 64" xml:space="preserve">
<g>
	<g>
		<g>
			<polygon points="11.6,19 0,19 0,45 11.6,45 35,64.2 35,-0.2 			"/>
		</g>
	</g>
	<g>
		<g>
			<g>
				<g>
					<path d="M51.4,60.5l-2.7-2.9C56,50.7,60,41.6,60,32S56,13.3,48.6,6.5l2.7-2.9C59.5,11.1,64,21.2,64,32S59.5,52.9,51.4,60.5z"/>
				</g>
			</g>
		</g>
		<g>
			<g>
				<g>
					<path d="M46.4,51.5l-2.7-2.9C48.4,44.1,51,38.2,51,32s-2.6-12.1-7.4-16.5l2.7-2.9C51.9,17.7,55,24.6,55,32S51.9,46.3,46.4,51.5
						z"/>
				</g>
			</g>
		</g>
		<g>
			<g>
				<g>
					<path d="M41.4,42.4l-2.9-2.8c4-4.2,4-11,0-15.2l2.9-2.8C46.9,27.3,46.9,36.7,41.4,42.4z"/>
				</g>
			</g>
		</g>
	</g>
</g>
</svg>
